<mxfile host="app.diagrams.net" modified="2023-06-21T18:03:41.169Z" agent="Mozilla/5.0 (Macintosh; Intel Mac OS X 10.15; rv:109.0) Gecko/20100101 Firefox/114.0" etag="P-WzPkoQj6qbsDULEdOo" version="21.4.0" type="device">
  <diagram name="Page-1" id="NsKaNp90tAVrkBalr9Xl">
    <mxGraphModel dx="828" dy="1008" grid="1" gridSize="10" guides="1" tooltips="1" connect="1" arrows="1" fold="1" page="1" pageScale="1" pageWidth="827" pageHeight="1169" background="#ffffff" math="0" shadow="0">
      <root>
        <mxCell id="0" />
        <mxCell id="1" parent="0" />
        <mxCell id="gr4ZGnsppBlSBsAu87VK-3" value="" style="verticalLabelPosition=bottom;verticalAlign=top;html=1;shape=mxgraph.basic.rect;fillColor2=none;strokeWidth=1;size=20;indent=5;fillColor=none;" parent="1" vertex="1">
          <mxGeometry x="20" width="730" height="1240" as="geometry" />
        </mxCell>
        <mxCell id="noQNSdCS3jOvXwd86y0i-93" value="" style="rounded=1;whiteSpace=wrap;html=1;absoluteArcSize=1;arcSize=14;strokeWidth=2;fillColor=#b0e3e6;strokeColor=#0e8088;" parent="1" vertex="1">
          <mxGeometry x="280" y="420" width="449" height="730" as="geometry" />
        </mxCell>
        <mxCell id="qoC-TeW5eMtCm7LT59_U-2" value="" style="edgeStyle=orthogonalEdgeStyle;rounded=0;orthogonalLoop=1;jettySize=auto;html=1;" parent="1" source="noQNSdCS3jOvXwd86y0i-92" target="noQNSdCS3jOvXwd86y0i-11" edge="1">
          <mxGeometry relative="1" as="geometry" />
        </mxCell>
        <mxCell id="noQNSdCS3jOvXwd86y0i-92" value="" style="rounded=1;whiteSpace=wrap;html=1;absoluteArcSize=1;arcSize=14;strokeWidth=2;fillColor=#fad9d5;strokeColor=#ae4132;" parent="1" vertex="1">
          <mxGeometry x="130" y="320" width="290" height="440" as="geometry" />
        </mxCell>
        <mxCell id="noQNSdCS3jOvXwd86y0i-7" style="edgeStyle=orthogonalEdgeStyle;rounded=0;orthogonalLoop=1;jettySize=auto;html=1;exitX=0.5;exitY=1;exitDx=0;exitDy=0;entryX=0.5;entryY=0;entryDx=0;entryDy=0;strokeColor=#000000;" parent="1" target="noQNSdCS3jOvXwd86y0i-6" edge="1">
          <mxGeometry relative="1" as="geometry">
            <mxPoint x="200" y="70" as="sourcePoint" />
          </mxGeometry>
        </mxCell>
        <mxCell id="noQNSdCS3jOvXwd86y0i-3" value="" style="ellipse;whiteSpace=wrap;html=1;aspect=fixed;fillColor=#feffff;fillStyle=solid;gradientColor=none;strokeColor=#000000;" parent="1" vertex="1">
          <mxGeometry x="175" y="20" width="50" height="50" as="geometry" />
        </mxCell>
        <mxCell id="noQNSdCS3jOvXwd86y0i-4" value="./push_swap &amp;lt;args&amp;gt;" style="text;strokeColor=none;align=center;fillColor=none;html=1;verticalAlign=middle;whiteSpace=wrap;rounded=0;fontColor=#000000;labelBackgroundColor=#FFFFFF;fontFamily=Helvetica;fontStyle=0;labelBorderColor=#9AC7BF;" parent="1" vertex="1">
          <mxGeometry x="127.5" y="30" width="145" height="30" as="geometry" />
        </mxCell>
        <mxCell id="noQNSdCS3jOvXwd86y0i-9" style="edgeStyle=orthogonalEdgeStyle;rounded=0;orthogonalLoop=1;jettySize=auto;html=1;exitX=0.5;exitY=1;exitDx=0;exitDy=0;entryX=0.5;entryY=0;entryDx=0;entryDy=0;strokeColor=#000000;" parent="1" source="noQNSdCS3jOvXwd86y0i-6" edge="1">
          <mxGeometry relative="1" as="geometry">
            <mxPoint x="200" y="140" as="targetPoint" />
          </mxGeometry>
        </mxCell>
        <mxCell id="noQNSdCS3jOvXwd86y0i-6" value="split_if_quoted_args" style="rounded=0;whiteSpace=wrap;html=1;absoluteArcSize=1;arcSize=14;strokeWidth=1;labelBackgroundColor=#FFFFFF;fillColor=#FFFFFF;labelBorderColor=none;fontColor=#000000;strokeColor=#000000;" parent="1" vertex="1">
          <mxGeometry x="140" y="90" width="120" height="30" as="geometry" />
        </mxCell>
        <mxCell id="noQNSdCS3jOvXwd86y0i-12" style="edgeStyle=orthogonalEdgeStyle;rounded=0;orthogonalLoop=1;jettySize=auto;html=1;exitX=0.5;exitY=1;exitDx=0;exitDy=0;exitPerimeter=0;entryX=0.5;entryY=0;entryDx=0;entryDy=0;strokeColor=#000000;fontColor=#000000;" parent="1" source="noQNSdCS3jOvXwd86y0i-10" target="noQNSdCS3jOvXwd86y0i-11" edge="1">
          <mxGeometry relative="1" as="geometry" />
        </mxCell>
        <mxCell id="noQNSdCS3jOvXwd86y0i-21" style="edgeStyle=orthogonalEdgeStyle;rounded=0;orthogonalLoop=1;jettySize=auto;html=1;exitX=0;exitY=0.5;exitDx=0;exitDy=0;exitPerimeter=0;strokeColor=#000000;" parent="1" source="noQNSdCS3jOvXwd86y0i-10" target="noQNSdCS3jOvXwd86y0i-22" edge="1">
          <mxGeometry relative="1" as="geometry">
            <mxPoint x="90" y="820" as="targetPoint" />
          </mxGeometry>
        </mxCell>
        <mxCell id="noQNSdCS3jOvXwd86y0i-10" value="&lt;div&gt;check_input&lt;/div&gt;&lt;div&gt;== 1?&lt;/div&gt;" style="strokeWidth=1;html=1;shape=mxgraph.flowchart.decision;whiteSpace=wrap;fillColor=#FFFFFF;strokeColor=#000000;fontColor=#000000;rounded=0;arcSize=14;labelBackgroundColor=#FFFFFF;labelBorderColor=#9AC7BF;" parent="1" vertex="1">
          <mxGeometry x="165" y="140" width="70" height="70" as="geometry" />
        </mxCell>
        <mxCell id="noQNSdCS3jOvXwd86y0i-14" style="edgeStyle=orthogonalEdgeStyle;rounded=0;orthogonalLoop=1;jettySize=auto;html=1;exitX=0.5;exitY=1;exitDx=0;exitDy=0;entryX=0.5;entryY=0;entryDx=0;entryDy=0;strokeColor=#000000;" parent="1" source="noQNSdCS3jOvXwd86y0i-11" target="noQNSdCS3jOvXwd86y0i-13" edge="1">
          <mxGeometry relative="1" as="geometry" />
        </mxCell>
        <mxCell id="noQNSdCS3jOvXwd86y0i-11" value="create_and_fill_stack" style="rounded=0;whiteSpace=wrap;html=1;absoluteArcSize=1;arcSize=14;strokeWidth=1;labelBackgroundColor=#FFFFFF;fillColor=#FFFFFF;labelBorderColor=none;fontColor=#000000;strokeColor=#000000;" parent="1" vertex="1">
          <mxGeometry x="140" y="230" width="120" height="30" as="geometry" />
        </mxCell>
        <mxCell id="noQNSdCS3jOvXwd86y0i-18" style="edgeStyle=orthogonalEdgeStyle;rounded=0;orthogonalLoop=1;jettySize=auto;html=1;exitX=0.5;exitY=1;exitDx=0;exitDy=0;entryX=0.5;entryY=0;entryDx=0;entryDy=0;entryPerimeter=0;strokeColor=#000000;" parent="1" source="noQNSdCS3jOvXwd86y0i-13" target="noQNSdCS3jOvXwd86y0i-17" edge="1">
          <mxGeometry relative="1" as="geometry" />
        </mxCell>
        <mxCell id="noQNSdCS3jOvXwd86y0i-13" value="set_assignments" style="rounded=0;whiteSpace=wrap;html=1;absoluteArcSize=1;arcSize=14;strokeWidth=1;labelBackgroundColor=#FFFFFF;fillColor=#FFFFFF;labelBorderColor=none;fontColor=#000000;strokeColor=#000000;" parent="1" vertex="1">
          <mxGeometry x="140" y="280" width="120" height="30" as="geometry" />
        </mxCell>
        <mxCell id="noQNSdCS3jOvXwd86y0i-15" value="&lt;div&gt;- argc == 1?&lt;/div&gt;&lt;div&gt;- ft_is_digit?&lt;/div&gt;&lt;div&gt;- ft_is_integer?&lt;/div&gt;&lt;div&gt;-ft_is_double?&lt;br&gt;&lt;/div&gt;" style="text;strokeColor=none;align=left;fillColor=none;html=1;verticalAlign=middle;whiteSpace=wrap;rounded=0;fontColor=#000000;fontStyle=2" parent="1" vertex="1">
          <mxGeometry x="430" y="140" width="90" height="70" as="geometry" />
        </mxCell>
        <mxCell id="noQNSdCS3jOvXwd86y0i-16" value="&lt;div&gt;- assign_places&lt;/div&gt;&lt;div&gt;- assign_indexes&lt;/div&gt;&lt;div&gt;- assign_gaps&lt;/div&gt;&lt;div&gt;- assign_closest_upper&lt;br&gt;&lt;/div&gt;" style="text;strokeColor=none;align=left;fillColor=none;html=1;verticalAlign=middle;whiteSpace=wrap;rounded=0;fontColor=#000000;fontStyle=2" parent="1" vertex="1">
          <mxGeometry x="430" y="260" width="140" height="70" as="geometry" />
        </mxCell>
        <mxCell id="noQNSdCS3jOvXwd86y0i-25" style="edgeStyle=orthogonalEdgeStyle;rounded=0;orthogonalLoop=1;jettySize=auto;html=1;exitX=1;exitY=0.5;exitDx=0;exitDy=0;exitPerimeter=0;entryX=0.5;entryY=0;entryDx=0;entryDy=0;entryPerimeter=0;strokeColor=#000000;" parent="1" source="noQNSdCS3jOvXwd86y0i-17" target="noQNSdCS3jOvXwd86y0i-24" edge="1">
          <mxGeometry relative="1" as="geometry" />
        </mxCell>
        <mxCell id="noQNSdCS3jOvXwd86y0i-40" style="edgeStyle=orthogonalEdgeStyle;rounded=0;orthogonalLoop=1;jettySize=auto;html=1;exitX=0.5;exitY=1;exitDx=0;exitDy=0;exitPerimeter=0;entryX=0.4;entryY=-0.033;entryDx=0;entryDy=0;entryPerimeter=0;strokeColor=#000000;" parent="1" source="noQNSdCS3jOvXwd86y0i-17" target="noQNSdCS3jOvXwd86y0i-32" edge="1">
          <mxGeometry relative="1" as="geometry" />
        </mxCell>
        <mxCell id="noQNSdCS3jOvXwd86y0i-17" value="argc &amp;lt;= 3?" style="strokeWidth=1;html=1;shape=mxgraph.flowchart.decision;whiteSpace=wrap;fillColor=#FFFFFF;strokeColor=#000000;fontColor=#000000;rounded=0;arcSize=14;labelBackgroundColor=#FFFFFF;labelBorderColor=#9AC7BF;" parent="1" vertex="1">
          <mxGeometry x="165" y="340" width="71" height="70" as="geometry" />
        </mxCell>
        <mxCell id="noQNSdCS3jOvXwd86y0i-19" value="T" style="text;strokeColor=none;align=center;fillColor=none;html=1;verticalAlign=middle;whiteSpace=wrap;rounded=0;fontColor=#000000;fontStyle=0;" parent="1" vertex="1">
          <mxGeometry x="175" y="206" width="20" height="20" as="geometry" />
        </mxCell>
        <mxCell id="qoC-TeW5eMtCm7LT59_U-7" style="edgeStyle=orthogonalEdgeStyle;rounded=0;orthogonalLoop=1;jettySize=auto;html=1;entryX=0;entryY=0.5;entryDx=0;entryDy=0;strokeColor=#000000;" parent="1" source="noQNSdCS3jOvXwd86y0i-22" target="qoC-TeW5eMtCm7LT59_U-4" edge="1">
          <mxGeometry relative="1" as="geometry">
            <mxPoint x="140" y="1250" as="targetPoint" />
            <Array as="points">
              <mxPoint x="90" y="1194" />
            </Array>
          </mxGeometry>
        </mxCell>
        <mxCell id="noQNSdCS3jOvXwd86y0i-22" value="print &quot;Error&quot;" style="strokeWidth=1;html=1;shape=mxgraph.flowchart.document2;whiteSpace=wrap;size=0.25;fillColor=#FFFFFF;strokeColor=#000000;fontColor=#000000;rounded=0;arcSize=14;labelBackgroundColor=#FFFFFF;labelBorderColor=none;" parent="1" vertex="1">
          <mxGeometry x="40" y="1100" width="100" height="30" as="geometry" />
        </mxCell>
        <mxCell id="noQNSdCS3jOvXwd86y0i-23" value="F" style="text;strokeColor=none;align=center;fillColor=none;html=1;verticalAlign=middle;whiteSpace=wrap;rounded=0;fontColor=#000000;fontStyle=0;" parent="1" vertex="1">
          <mxGeometry x="122" y="158" width="20" height="20" as="geometry" />
        </mxCell>
        <mxCell id="noQNSdCS3jOvXwd86y0i-35" style="edgeStyle=orthogonalEdgeStyle;rounded=0;orthogonalLoop=1;jettySize=auto;html=1;exitX=0.5;exitY=1;exitDx=0;exitDy=0;exitPerimeter=0;entryX=0.5;entryY=0;entryDx=0;entryDy=0;strokeColor=#000000;" parent="1" source="noQNSdCS3jOvXwd86y0i-24" target="noQNSdCS3jOvXwd86y0i-26" edge="1">
          <mxGeometry relative="1" as="geometry" />
        </mxCell>
        <mxCell id="noQNSdCS3jOvXwd86y0i-64" style="edgeStyle=orthogonalEdgeStyle;rounded=0;orthogonalLoop=1;jettySize=auto;html=1;exitX=1;exitY=0.5;exitDx=0;exitDy=0;exitPerimeter=0;entryX=0.5;entryY=0;entryDx=0;entryDy=0;entryPerimeter=0;strokeColor=#000000;" parent="1" source="noQNSdCS3jOvXwd86y0i-24" target="noQNSdCS3jOvXwd86y0i-47" edge="1">
          <mxGeometry relative="1" as="geometry">
            <Array as="points">
              <mxPoint x="594" y="444" />
            </Array>
          </mxGeometry>
        </mxCell>
        <mxCell id="noQNSdCS3jOvXwd86y0i-24" value="argc &amp;lt;= 5?" style="strokeWidth=1;html=1;shape=mxgraph.flowchart.decision;whiteSpace=wrap;fillColor=#FFFFFF;strokeColor=#000000;fontColor=#000000;rounded=0;arcSize=14;labelBackgroundColor=#FFFFFF;labelBorderColor=#9AC7BF;" parent="1" vertex="1">
          <mxGeometry x="287" y="409" width="70" height="70" as="geometry" />
        </mxCell>
        <mxCell id="noQNSdCS3jOvXwd86y0i-34" style="edgeStyle=orthogonalEdgeStyle;rounded=0;orthogonalLoop=1;jettySize=auto;html=1;exitX=0.5;exitY=1;exitDx=0;exitDy=0;entryX=0.5;entryY=0;entryDx=0;entryDy=0;entryPerimeter=0;strokeColor=#000000;" parent="1" source="noQNSdCS3jOvXwd86y0i-26" target="noQNSdCS3jOvXwd86y0i-29" edge="1">
          <mxGeometry relative="1" as="geometry" />
        </mxCell>
        <mxCell id="noQNSdCS3jOvXwd86y0i-26" value="sort_few" style="rounded=0;whiteSpace=wrap;html=1;absoluteArcSize=1;arcSize=14;strokeWidth=1;labelBackgroundColor=#FFFFFF;fillColor=#FFFFFF;labelBorderColor=none;fontColor=#000000;strokeColor=#000000;" parent="1" vertex="1">
          <mxGeometry x="262" y="499" width="120" height="30" as="geometry" />
        </mxCell>
        <mxCell id="noQNSdCS3jOvXwd86y0i-27" value="T" style="text;strokeColor=none;align=center;fillColor=none;html=1;verticalAlign=middle;whiteSpace=wrap;rounded=0;fontColor=#000000;fontStyle=0;" parent="1" vertex="1">
          <mxGeometry x="180" y="540" width="20" height="20" as="geometry" />
        </mxCell>
        <mxCell id="noQNSdCS3jOvXwd86y0i-28" value="F" style="text;strokeColor=none;align=center;fillColor=none;html=1;verticalAlign=middle;whiteSpace=wrap;rounded=0;fontColor=#000000;fontStyle=0;" parent="1" vertex="1">
          <mxGeometry x="270" y="356" width="20" height="20" as="geometry" />
        </mxCell>
        <mxCell id="noQNSdCS3jOvXwd86y0i-36" style="edgeStyle=orthogonalEdgeStyle;rounded=0;orthogonalLoop=1;jettySize=auto;html=1;exitX=0.5;exitY=1;exitDx=0;exitDy=0;exitPerimeter=0;entryX=0.5;entryY=0;entryDx=0;entryDy=0;strokeColor=#000000;" parent="1" source="noQNSdCS3jOvXwd86y0i-29" target="noQNSdCS3jOvXwd86y0i-31" edge="1">
          <mxGeometry relative="1" as="geometry" />
        </mxCell>
        <mxCell id="noQNSdCS3jOvXwd86y0i-41" style="edgeStyle=orthogonalEdgeStyle;rounded=0;orthogonalLoop=1;jettySize=auto;html=1;exitX=0;exitY=0.5;exitDx=0;exitDy=0;exitPerimeter=0;strokeColor=#000000;entryX=0.642;entryY=-0.067;entryDx=0;entryDy=0;entryPerimeter=0;" parent="1" source="noQNSdCS3jOvXwd86y0i-29" target="noQNSdCS3jOvXwd86y0i-32" edge="1">
          <mxGeometry relative="1" as="geometry">
            <mxPoint x="226" y="690" as="targetPoint" />
          </mxGeometry>
        </mxCell>
        <mxCell id="noQNSdCS3jOvXwd86y0i-29" value="stack_a size&lt;br&gt;&amp;gt; 3?" style="strokeWidth=1;shape=mxgraph.flowchart.decision;fillColor=#FFFFFF;strokeColor=#000000;fontColor=#000000;rounded=0;arcSize=14;labelBackgroundColor=#FFFFFF;labelBorderColor=#9AC7BF;html=1;spacing=0;" parent="1" vertex="1">
          <mxGeometry x="287" y="559.5" width="70" height="70" as="geometry" />
        </mxCell>
        <mxCell id="noQNSdCS3jOvXwd86y0i-59" style="edgeStyle=orthogonalEdgeStyle;rounded=0;orthogonalLoop=1;jettySize=auto;html=1;exitX=1;exitY=0.5;exitDx=0;exitDy=0;strokeColor=#000000;" parent="1" source="noQNSdCS3jOvXwd86y0i-31" edge="1">
          <mxGeometry relative="1" as="geometry">
            <mxPoint x="326" y="540" as="targetPoint" />
            <Array as="points">
              <mxPoint x="400" y="670" />
              <mxPoint x="400" y="540" />
            </Array>
          </mxGeometry>
        </mxCell>
        <mxCell id="noQNSdCS3jOvXwd86y0i-31" value="&lt;div&gt;send_min_to_top&lt;/div&gt;&lt;div&gt;push to b&lt;br&gt;&lt;/div&gt;" style="rounded=0;whiteSpace=wrap;html=1;absoluteArcSize=1;arcSize=14;strokeWidth=1;labelBackgroundColor=#FFFFFF;fillColor=#FFFFFF;labelBorderColor=none;fontColor=#000000;strokeColor=#000000;" parent="1" vertex="1">
          <mxGeometry x="262" y="650" width="120" height="40" as="geometry" />
        </mxCell>
        <mxCell id="qoC-TeW5eMtCm7LT59_U-1" style="edgeStyle=orthogonalEdgeStyle;rounded=0;orthogonalLoop=1;jettySize=auto;html=1;exitX=0.5;exitY=1;exitDx=0;exitDy=0;entryX=0;entryY=0.5;entryDx=0;entryDy=0;strokeColor=#000000;" parent="1" source="noQNSdCS3jOvXwd86y0i-32" target="noQNSdCS3jOvXwd86y0i-80" edge="1">
          <mxGeometry relative="1" as="geometry">
            <mxPoint x="250" y="1130" as="targetPoint" />
            <Array as="points">
              <mxPoint x="212" y="1115" />
            </Array>
          </mxGeometry>
        </mxCell>
        <mxCell id="noQNSdCS3jOvXwd86y0i-32" value="&lt;div&gt;sort_three&lt;/div&gt;" style="rounded=0;whiteSpace=wrap;html=1;absoluteArcSize=1;arcSize=14;strokeWidth=1;labelBackgroundColor=#FFFFFF;fillColor=#FFFFFF;labelBorderColor=none;fontColor=#000000;strokeColor=#000000;" parent="1" vertex="1">
          <mxGeometry x="152" y="710" width="120" height="30" as="geometry" />
        </mxCell>
        <mxCell id="noQNSdCS3jOvXwd86y0i-37" value="T" style="text;strokeColor=none;align=center;fillColor=none;html=1;verticalAlign=middle;whiteSpace=wrap;rounded=0;fontColor=#000000;fontStyle=0;" parent="1" vertex="1">
          <mxGeometry x="300" y="625.5" width="20" height="20" as="geometry" />
        </mxCell>
        <mxCell id="noQNSdCS3jOvXwd86y0i-42" value="T" style="text;strokeColor=none;align=center;fillColor=none;html=1;verticalAlign=middle;whiteSpace=wrap;rounded=0;fontColor=#000000;fontStyle=0;" parent="1" vertex="1">
          <mxGeometry x="301" y="477" width="20" height="20" as="geometry" />
        </mxCell>
        <mxCell id="noQNSdCS3jOvXwd86y0i-43" value="F" style="text;strokeColor=none;align=center;fillColor=none;html=1;verticalAlign=middle;whiteSpace=wrap;rounded=0;fontColor=#000000;fontStyle=0;" parent="1" vertex="1">
          <mxGeometry x="252" y="575" width="20" height="20" as="geometry" />
        </mxCell>
        <mxCell id="noQNSdCS3jOvXwd86y0i-52" style="edgeStyle=orthogonalEdgeStyle;rounded=0;orthogonalLoop=1;jettySize=auto;html=1;exitX=1;exitY=0.5;exitDx=0;exitDy=0;strokeColor=#000000;" parent="1" source="noQNSdCS3jOvXwd86y0i-46" edge="1">
          <mxGeometry relative="1" as="geometry">
            <mxPoint x="599" y="542" as="targetPoint" />
            <Array as="points">
              <mxPoint x="679" y="666" />
              <mxPoint x="679" y="542" />
            </Array>
          </mxGeometry>
        </mxCell>
        <mxCell id="noQNSdCS3jOvXwd86y0i-46" value="push to b" style="rounded=0;whiteSpace=wrap;html=1;absoluteArcSize=1;arcSize=14;strokeWidth=1;labelBackgroundColor=#FFFFFF;fillColor=#FFFFFF;labelBorderColor=none;fontColor=#000000;strokeColor=#000000;" parent="1" vertex="1">
          <mxGeometry x="534" y="650.5" width="120" height="30" as="geometry" />
        </mxCell>
        <mxCell id="noQNSdCS3jOvXwd86y0i-50" style="edgeStyle=orthogonalEdgeStyle;rounded=0;orthogonalLoop=1;jettySize=auto;html=1;exitX=0.5;exitY=1;exitDx=0;exitDy=0;exitPerimeter=0;entryX=0.5;entryY=0;entryDx=0;entryDy=0;entryPerimeter=0;strokeColor=#000000;" parent="1" source="noQNSdCS3jOvXwd86y0i-47" target="noQNSdCS3jOvXwd86y0i-49" edge="1">
          <mxGeometry relative="1" as="geometry" />
        </mxCell>
        <mxCell id="noQNSdCS3jOvXwd86y0i-63" style="edgeStyle=orthogonalEdgeStyle;rounded=0;orthogonalLoop=1;jettySize=auto;html=1;exitX=1;exitY=0.5;exitDx=0;exitDy=0;exitPerimeter=0;strokeColor=#000000;" parent="1" source="noQNSdCS3jOvXwd86y0i-47" edge="1">
          <mxGeometry relative="1" as="geometry">
            <mxPoint x="370" y="940" as="targetPoint" />
            <Array as="points">
              <mxPoint x="700" y="496" />
              <mxPoint x="700" y="940" />
            </Array>
          </mxGeometry>
        </mxCell>
        <mxCell id="noQNSdCS3jOvXwd86y0i-47" value="is_sorted?" style="strokeWidth=1;html=1;shape=mxgraph.flowchart.decision;whiteSpace=wrap;fillColor=#FFFFFF;strokeColor=#000000;fontColor=#000000;rounded=0;arcSize=14;labelBackgroundColor=#FFFFFF;labelBorderColor=none;" parent="1" vertex="1">
          <mxGeometry x="559" y="461" width="70" height="70" as="geometry" />
        </mxCell>
        <mxCell id="noQNSdCS3jOvXwd86y0i-48" value="SIMPLE SORT" style="text;strokeColor=none;align=center;fillColor=none;html=1;verticalAlign=middle;rounded=0;fontColor=#990000;fontStyle=1;fontSize=14;" parent="1" vertex="1">
          <mxGeometry x="295.5" y="339" width="130" height="20" as="geometry" />
        </mxCell>
        <mxCell id="noQNSdCS3jOvXwd86y0i-51" style="edgeStyle=orthogonalEdgeStyle;rounded=0;orthogonalLoop=1;jettySize=auto;html=1;exitX=0.5;exitY=1;exitDx=0;exitDy=0;exitPerimeter=0;entryX=0.5;entryY=0;entryDx=0;entryDy=0;strokeColor=#000000;" parent="1" source="noQNSdCS3jOvXwd86y0i-49" target="noQNSdCS3jOvXwd86y0i-46" edge="1">
          <mxGeometry relative="1" as="geometry" />
        </mxCell>
        <mxCell id="noQNSdCS3jOvXwd86y0i-54" style="edgeStyle=orthogonalEdgeStyle;rounded=0;orthogonalLoop=1;jettySize=auto;html=1;exitX=0;exitY=0.5;exitDx=0;exitDy=0;exitPerimeter=0;strokeColor=#000000;entryX=0.5;entryY=0;entryDx=0;entryDy=0;" parent="1" source="noQNSdCS3jOvXwd86y0i-49" target="noQNSdCS3jOvXwd86y0i-57" edge="1">
          <mxGeometry relative="1" as="geometry">
            <mxPoint x="499" y="660" as="targetPoint" />
          </mxGeometry>
        </mxCell>
        <mxCell id="noQNSdCS3jOvXwd86y0i-49" value="&lt;div&gt;stack_a size&lt;/div&gt;&lt;div&gt;&amp;gt; 3?&lt;br&gt;&lt;/div&gt;" style="strokeWidth=1;html=1;shape=mxgraph.flowchart.decision;whiteSpace=wrap;fillColor=#FFFFFF;strokeColor=#000000;fontColor=#000000;rounded=0;arcSize=14;labelBackgroundColor=#FFFFFF;labelBorderColor=#9AC7BF;" parent="1" vertex="1">
          <mxGeometry x="559" y="557" width="70" height="70" as="geometry" />
        </mxCell>
        <mxCell id="noQNSdCS3jOvXwd86y0i-70" style="edgeStyle=orthogonalEdgeStyle;rounded=0;orthogonalLoop=1;jettySize=auto;html=1;exitX=0.5;exitY=1;exitDx=0;exitDy=0;entryX=0.5;entryY=0;entryDx=0;entryDy=0;entryPerimeter=0;fontSize=11;align=center;fillColor=none;strokeColor=#000000;fontColor=default;gradientColor=none;fontStyle=2;" parent="1" source="noQNSdCS3jOvXwd86y0i-57" target="noQNSdCS3jOvXwd86y0i-68" edge="1">
          <mxGeometry relative="1" as="geometry" />
        </mxCell>
        <mxCell id="noQNSdCS3jOvXwd86y0i-57" value="&lt;div&gt;sort_three&lt;br&gt;&lt;/div&gt;&lt;div&gt;set_assignments&lt;br&gt;&lt;/div&gt;" style="rounded=0;whiteSpace=wrap;html=1;absoluteArcSize=1;arcSize=14;strokeWidth=1;labelBackgroundColor=#FFFFFF;fillColor=#FFFFFF;labelBorderColor=none;fontColor=#000000;strokeColor=#000000;" parent="1" vertex="1">
          <mxGeometry x="449" y="709" width="120" height="40" as="geometry" />
        </mxCell>
        <mxCell id="noQNSdCS3jOvXwd86y0i-58" value="T" style="text;strokeColor=none;align=center;fillColor=none;html=1;verticalAlign=middle;whiteSpace=wrap;rounded=0;fontColor=#000000;fontStyle=0;" parent="1" vertex="1">
          <mxGeometry x="574" y="626.5" width="20" height="20" as="geometry" />
        </mxCell>
        <mxCell id="noQNSdCS3jOvXwd86y0i-60" value="F" style="text;strokeColor=none;align=center;fillColor=none;html=1;verticalAlign=middle;whiteSpace=wrap;rounded=0;fontColor=#000000;fontStyle=0;" parent="1" vertex="1">
          <mxGeometry x="518" y="573" width="20" height="20" as="geometry" />
        </mxCell>
        <mxCell id="noQNSdCS3jOvXwd86y0i-61" value="F" style="text;strokeColor=none;align=center;fillColor=none;html=1;verticalAlign=middle;whiteSpace=wrap;rounded=0;fontColor=#000000;fontStyle=0;" parent="1" vertex="1">
          <mxGeometry x="575" y="532.5" width="20" height="20" as="geometry" />
        </mxCell>
        <mxCell id="noQNSdCS3jOvXwd86y0i-65" value="F" style="text;strokeColor=none;align=center;fillColor=none;html=1;verticalAlign=middle;whiteSpace=wrap;rounded=0;fontColor=#000000;fontStyle=0;" parent="1" vertex="1">
          <mxGeometry x="498" y="425" width="20" height="20" as="geometry" />
        </mxCell>
        <mxCell id="noQNSdCS3jOvXwd86y0i-67" value="Assignments:" style="text;strokeColor=none;align=left;fillColor=none;html=1;verticalAlign=middle;whiteSpace=wrap;rounded=0;fontColor=#000000;fontStyle=2;horizontal=1;" parent="1" vertex="1">
          <mxGeometry x="327" y="290" width="110" height="10" as="geometry" />
        </mxCell>
        <mxCell id="noQNSdCS3jOvXwd86y0i-72" style="edgeStyle=orthogonalEdgeStyle;rounded=0;orthogonalLoop=1;jettySize=auto;html=1;exitX=0.5;exitY=1;exitDx=0;exitDy=0;exitPerimeter=0;entryX=0.5;entryY=0;entryDx=0;entryDy=0;strokeColor=#000000;" parent="1" source="noQNSdCS3jOvXwd86y0i-68" target="noQNSdCS3jOvXwd86y0i-69" edge="1">
          <mxGeometry relative="1" as="geometry" />
        </mxCell>
        <mxCell id="noQNSdCS3jOvXwd86y0i-77" style="edgeStyle=orthogonalEdgeStyle;rounded=0;orthogonalLoop=1;jettySize=auto;html=1;exitX=0;exitY=0.5;exitDx=0;exitDy=0;exitPerimeter=0;entryX=0.5;entryY=0;entryDx=0;entryDy=0;strokeColor=#000000;" parent="1" source="noQNSdCS3jOvXwd86y0i-68" target="noQNSdCS3jOvXwd86y0i-76" edge="1">
          <mxGeometry relative="1" as="geometry">
            <mxPoint x="370" y="814" as="targetPoint" />
          </mxGeometry>
        </mxCell>
        <mxCell id="noQNSdCS3jOvXwd86y0i-68" value="stack_b?" style="strokeWidth=1;html=1;shape=mxgraph.flowchart.decision;whiteSpace=wrap;fillColor=#FFFFFF;strokeColor=#000000;fontColor=#000000;rounded=0;arcSize=14;labelBackgroundColor=#FFFFFF;labelBorderColor=none;" parent="1" vertex="1">
          <mxGeometry x="475" y="779" width="70" height="70" as="geometry" />
        </mxCell>
        <mxCell id="noQNSdCS3jOvXwd86y0i-78" style="edgeStyle=orthogonalEdgeStyle;rounded=0;orthogonalLoop=1;jettySize=auto;html=1;exitX=1;exitY=0.5;exitDx=0;exitDy=0;strokeColor=#000000;" parent="1" source="noQNSdCS3jOvXwd86y0i-69" edge="1">
          <mxGeometry relative="1" as="geometry">
            <mxPoint x="510" y="760" as="targetPoint" />
            <Array as="points">
              <mxPoint x="590" y="895" />
              <mxPoint x="590" y="760" />
              <mxPoint x="530" y="760" />
            </Array>
          </mxGeometry>
        </mxCell>
        <mxCell id="noQNSdCS3jOvXwd86y0i-69" value="&lt;div&gt;sort_three&lt;br&gt;&lt;/div&gt;&lt;div&gt;set_assignments&lt;/div&gt;&lt;div&gt;find_best_push&lt;br&gt;&lt;/div&gt;&lt;div&gt;&lt;font color=&quot;#3333ff&quot;&gt;&lt;b&gt;choose_commands&lt;/b&gt;&lt;/font&gt;&lt;br&gt;&lt;/div&gt;" style="rounded=0;whiteSpace=wrap;html=1;absoluteArcSize=1;arcSize=14;strokeWidth=1;labelBackgroundColor=#FFFFFF;fillColor=#FFFFFF;labelBorderColor=none;fontColor=#000000;strokeColor=#000000;" parent="1" vertex="1">
          <mxGeometry x="450" y="870" width="120" height="60" as="geometry" />
        </mxCell>
        <mxCell id="noQNSdCS3jOvXwd86y0i-74" value="T" style="text;strokeColor=none;align=center;fillColor=none;html=1;verticalAlign=middle;whiteSpace=wrap;rounded=0;fontColor=#000000;fontStyle=0;" parent="1" vertex="1">
          <mxGeometry x="485" y="846" width="20" height="20" as="geometry" />
        </mxCell>
        <mxCell id="noQNSdCS3jOvXwd86y0i-83" style="edgeStyle=orthogonalEdgeStyle;rounded=0;orthogonalLoop=1;jettySize=auto;html=1;exitX=0.5;exitY=1;exitDx=0;exitDy=0;entryX=0.5;entryY=0;entryDx=0;entryDy=0;entryPerimeter=0;strokeColor=#000000;" parent="1" source="noQNSdCS3jOvXwd86y0i-76" target="noQNSdCS3jOvXwd86y0i-82" edge="1">
          <mxGeometry relative="1" as="geometry" />
        </mxCell>
        <mxCell id="noQNSdCS3jOvXwd86y0i-76" value="send_min_to_top" style="rounded=0;whiteSpace=wrap;html=1;absoluteArcSize=1;arcSize=14;strokeWidth=1;labelBackgroundColor=#FFFFFF;fillColor=#FFFFFF;labelBorderColor=none;fontColor=#000000;strokeColor=#000000;" parent="1" vertex="1">
          <mxGeometry x="310" y="890" width="120" height="30" as="geometry" />
        </mxCell>
        <mxCell id="noQNSdCS3jOvXwd86y0i-79" value="F" style="text;strokeColor=none;align=center;fillColor=none;html=1;verticalAlign=middle;whiteSpace=wrap;rounded=0;fontColor=#000000;fontStyle=0;" parent="1" vertex="1">
          <mxGeometry x="417" y="795" width="20" height="20" as="geometry" />
        </mxCell>
        <mxCell id="qoC-TeW5eMtCm7LT59_U-3" style="edgeStyle=orthogonalEdgeStyle;rounded=0;orthogonalLoop=1;jettySize=auto;html=1;exitX=0.5;exitY=1;exitDx=0;exitDy=0;entryX=1;entryY=0.5;entryDx=0;entryDy=0;strokeColor=#000000;" parent="1" source="noQNSdCS3jOvXwd86y0i-80" target="qoC-TeW5eMtCm7LT59_U-4" edge="1">
          <mxGeometry relative="1" as="geometry">
            <mxPoint x="250" y="1210" as="targetPoint" />
            <Array as="points">
              <mxPoint x="370" y="1194" />
            </Array>
          </mxGeometry>
        </mxCell>
        <mxCell id="noQNSdCS3jOvXwd86y0i-80" value="&lt;div&gt;free_stacks&lt;br&gt;&lt;/div&gt;" style="rounded=0;whiteSpace=wrap;html=1;absoluteArcSize=1;arcSize=14;strokeWidth=1;labelBackgroundColor=#FFFFFF;fillColor=#FFFFFF;labelBorderColor=none;fontColor=#000000;strokeColor=#000000;" parent="1" vertex="1">
          <mxGeometry x="310" y="1100" width="120" height="30" as="geometry" />
        </mxCell>
        <mxCell id="noQNSdCS3jOvXwd86y0i-85" style="edgeStyle=orthogonalEdgeStyle;rounded=0;orthogonalLoop=1;jettySize=auto;html=1;exitX=0.5;exitY=1;exitDx=0;exitDy=0;exitPerimeter=0;entryX=0.5;entryY=0;entryDx=0;entryDy=0;strokeColor=#000000;" parent="1" source="noQNSdCS3jOvXwd86y0i-82" target="noQNSdCS3jOvXwd86y0i-80" edge="1">
          <mxGeometry relative="1" as="geometry" />
        </mxCell>
        <mxCell id="noQNSdCS3jOvXwd86y0i-88" style="edgeStyle=orthogonalEdgeStyle;rounded=0;orthogonalLoop=1;jettySize=auto;html=1;exitX=1;exitY=0.5;exitDx=0;exitDy=0;exitPerimeter=0;strokeColor=#000000;entryX=0.5;entryY=0;entryDx=0;entryDy=0;" parent="1" source="noQNSdCS3jOvXwd86y0i-82" target="noQNSdCS3jOvXwd86y0i-84" edge="1">
          <mxGeometry relative="1" as="geometry">
            <mxPoint x="460" y="994" as="targetPoint" />
          </mxGeometry>
        </mxCell>
        <mxCell id="noQNSdCS3jOvXwd86y0i-82" value="&lt;div&gt;argc was&lt;/div&gt;&lt;div&gt;quoted?&lt;br&gt;&lt;/div&gt;" style="strokeWidth=1;html=1;shape=mxgraph.flowchart.decision;whiteSpace=wrap;fillColor=#FFFFFF;strokeColor=#000000;fontColor=#000000;rounded=0;arcSize=14;labelBackgroundColor=#FFFFFF;labelBorderColor=#9AC7BF;" parent="1" vertex="1">
          <mxGeometry x="334.5" y="959" width="70" height="70" as="geometry" />
        </mxCell>
        <mxCell id="noQNSdCS3jOvXwd86y0i-89" style="edgeStyle=orthogonalEdgeStyle;rounded=0;orthogonalLoop=1;jettySize=auto;html=1;exitX=0.5;exitY=1;exitDx=0;exitDy=0;strokeColor=#000000;" parent="1" source="noQNSdCS3jOvXwd86y0i-84" edge="1">
          <mxGeometry relative="1" as="geometry">
            <mxPoint x="370" y="1080" as="targetPoint" />
            <Array as="points">
              <mxPoint x="460" y="1080" />
            </Array>
          </mxGeometry>
        </mxCell>
        <mxCell id="noQNSdCS3jOvXwd86y0i-84" value="free_array_of_strings" style="rounded=0;whiteSpace=wrap;html=1;absoluteArcSize=1;arcSize=14;strokeWidth=1;labelBackgroundColor=#FFFFFF;fillColor=#FFFFFF;labelBorderColor=none;fontColor=#000000;strokeColor=#000000;" parent="1" vertex="1">
          <mxGeometry x="400" y="1026" width="120" height="30" as="geometry" />
        </mxCell>
        <mxCell id="noQNSdCS3jOvXwd86y0i-90" value="T" style="text;strokeColor=none;align=center;fillColor=none;html=1;verticalAlign=middle;whiteSpace=wrap;rounded=0;fontColor=#000000;fontStyle=0;" parent="1" vertex="1">
          <mxGeometry x="417" y="974" width="20" height="20" as="geometry" />
        </mxCell>
        <mxCell id="noQNSdCS3jOvXwd86y0i-91" value="F" style="text;strokeColor=none;align=center;fillColor=none;html=1;verticalAlign=middle;whiteSpace=wrap;rounded=0;fontColor=#000000;fontStyle=0;" parent="1" vertex="1">
          <mxGeometry x="349" y="1050" width="20" height="20" as="geometry" />
        </mxCell>
        <mxCell id="noQNSdCS3jOvXwd86y0i-94" value="COMPLEX_SORT" style="text;strokeColor=none;align=center;fillColor=none;html=1;verticalAlign=middle;rounded=0;fontColor=#006666;fontStyle=1;fontSize=14;" parent="1" vertex="1">
          <mxGeometry x="595" y="429" width="130" height="20" as="geometry" />
        </mxCell>
        <mxCell id="noQNSdCS3jOvXwd86y0i-96" value="" style="strokeWidth=1;html=1;shape=mxgraph.flowchart.annotation_2;align=left;labelPosition=right;pointerEvents=1;strokeColor=#000000;" parent="1" vertex="1">
          <mxGeometry x="410" y="259" width="29" height="72" as="geometry" />
        </mxCell>
        <mxCell id="noQNSdCS3jOvXwd86y0i-97" value="" style="strokeWidth=1;html=1;shape=mxgraph.flowchart.annotation_2;align=left;labelPosition=right;pointerEvents=1;strokeColor=#000000;" parent="1" vertex="1">
          <mxGeometry x="410" y="139" width="29" height="72" as="geometry" />
        </mxCell>
        <mxCell id="noQNSdCS3jOvXwd86y0i-98" value="Input handling:" style="text;strokeColor=none;align=left;fillColor=none;html=1;verticalAlign=middle;whiteSpace=wrap;rounded=0;fontColor=#000000;fontStyle=2;horizontal=1;" parent="1" vertex="1">
          <mxGeometry x="325" y="170" width="110" height="10" as="geometry" />
        </mxCell>
        <mxCell id="qoC-TeW5eMtCm7LT59_U-4" value="" style="ellipse;whiteSpace=wrap;html=1;aspect=fixed;fillColor=#feffff;fillStyle=solid;gradientColor=none;strokeColor=#000000;" parent="1" vertex="1">
          <mxGeometry x="185" y="1169" width="50" height="50" as="geometry" />
        </mxCell>
        <mxCell id="OiN-hMLo83VsJfQRgf5G-1" value="T" style="text;strokeColor=none;align=center;fillColor=none;html=1;verticalAlign=middle;whiteSpace=wrap;rounded=0;fontColor=#000000;fontStyle=0;" vertex="1" parent="1">
          <mxGeometry x="649" y="475.5" width="20" height="20" as="geometry" />
        </mxCell>
      </root>
    </mxGraphModel>
  </diagram>
</mxfile>
